<?xml version="1.0" encoding="utf-8"?>
<!-- Generator: Adobe Illustrator 25.0.0, SVG Export Plug-In . SVG Version: 6.00 Build 0)  -->
<svg version="1.1" id="Layer_1" xmlns="http://www.w3.org/2000/svg" xmlns:xlink="http://www.w3.org/1999/xlink" x="0px" y="0px"
	 viewBox="0 0 300 297" style="enable-background:new 0 0 300 297;" xml:space="preserve">
<style type="text/css">
	.st0{fill-rule:evenodd;clip-rule:evenodd;fill:#30468F;}
	.st1{fill:#FFFFFF;}
	.st2{fill:#30468F;}
</style>
<path class="st0" d="M18,297h263.5c9.5,0,17-7.5,17-17V16.5c0-9-7.5-16.5-17-16.5H18C9,0,1.5,7.5,1.5,16.5V280
	C1.5,289.5,9,297,18,297z"/>
<path class="st1" d="M18,293h263.5c7,0,12.5-5.5,12.5-12.5v-264c0-7-5.5-12.5-12.5-12.5H18C11,4,5.5,10,5.5,16.5V280
	C5.5,287.5,11,293,18,293z"/>
<path class="st2" d="M18,289h263.5c4.5,0,8.5-3.5,8.5-8.5v-264c0-4.5-3.5-8.5-8.5-8.5H18c-4.5,0-8.5,4-8.5,8.5V280
	C9.5,285,13.5,289,18,289z"/>
<path class="st1" d="M215,184.5c-0.5,0-0.5,0-1,0.5C214.5,184.5,215,184.5,215,184.5z"/>
<path class="st1" d="M95,184.5l-1-0.5C94.5,184.5,95,184.5,95,184.5z"/>
<path class="st1" d="M32.5,236.5H49V274H32.5V236.5z"/>
<path class="st1" d="M135.5,118.5c7.5,2,15.5,3.5,24,3.5c8,0,16-1,23.5-3.5l-1.5-4.5c-7,2-14.5,3-22,3c-8,0-15.5-1-22.5-3
	L135.5,118.5z"/>
<path class="st1" d="M124,41h18c1,6.5,6.5,14,17,14c11,0,16-7.5,17.5-14H203V24.5H92.5l-60,111V230H49v-91l53.5-98H124z M169.5,41
	c0,0-0.5,7-10,7s-10-7-10-7H169.5z"/>
<path class="st1" d="M142.5,95c5.5,1.5,11,2.5,17,2.5S171,97,176,95l-1-4.5c-5,1.5-10,2-15.5,2s-10.5-1-15.5-2L142.5,95z"/>
<path class="st1" d="M169,70.5l-1-4c-3,0.5-5.5,1.5-8.5,1.5s-6-0.5-9-1.5l-1,4c3,1,6.5,1.5,10,1.5C162.5,72,166,71.5,169,70.5z"/>
<path class="st1" d="M67,236.5v8h16.5V257c1,7.5,7,14.5,15,14.5s14-7,14-14.5v-12.5h84V257c0,7.5,6,14.5,14,14.5s15-7,15-14.5v-12.5
	H242v-8H67z"/>
<path class="st1" d="M225.5,181.5l-20-44.5H105l-20,44.5c-9,0-17.5,5-17.5,14c0,2,0,3,0,3V230H243v-31.5c0,0,0-1,0-3
	C242.5,186.5,234.5,181.5,225.5,181.5z M99.5,217C94,217,89,212.5,89,206.5S93.5,196,99.5,196c5.5,0,10.5,4.5,10.5,10.5
	S105.5,217,99.5,217z M96.5,185.5l2-5l1-2l14-29.5H197l14,29.5l1,2l2,4.5H96.5V185.5z M210.5,217c-5.5,0-10.5-4.5-10.5-10.5
	s4.5-10.5,10.5-10.5s10.5,4.5,10.5,10.5S216,217,210.5,217z"/>
</svg>
