<?xml version="1.0" encoding="utf-8"?>
<!-- Generator: Adobe Illustrator 25.0.0, SVG Export Plug-In . SVG Version: 6.00 Build 0)  -->
<svg version="1.1" id="Layer_1" xmlns="http://www.w3.org/2000/svg" xmlns:xlink="http://www.w3.org/1999/xlink" x="0px" y="0px"
	 viewBox="0 0 700.2 700.2" style="enable-background:new 0 0 700.2 700.2;" xml:space="preserve">
<style type="text/css">
	.st0{fill:#BF9514;}
	.st1{fill:#F1F2F2;}
	.st2{fill:#FF2316;}
	.st3{fill:#FFC61B;}
	.st4{fill:#1B75BC;}
	.st5{fill:#00AEEF;}
	.st6{fill:#B2B2B2;}
	.st7{fill:#353535;}
</style>
<rect x="22.6" y="638.9" class="st0" width="43.3" height="0"/>
<rect x="633.4" y="638.9" class="st0" width="43.3" height="0"/>
<g>
	<rect x="23.4" y="43.3" class="st1" width="653.3" height="43.5"/>
	<polygon class="st2" points="77,86.8 23.4,86.8 50.2,43.3 103.8,43.3 	"/>
	<polygon class="st2" points="183.2,86.8 129.6,86.8 156.4,43.3 210,43.3 	"/>
	<polygon class="st2" points="289.5,86.8 235.9,86.8 262.7,43.3 316.3,43.3 	"/>
	<polygon class="st2" points="395.7,86.8 342.1,86.8 368.9,43.3 422.5,43.3 	"/>
	<polygon class="st2" points="502,86.8 448.4,86.8 475.2,43.3 528.8,43.3 	"/>
	<polygon class="st2" points="608.2,86.8 554.6,86.8 581.4,43.3 635,43.3 	"/>
</g>
<rect x="22.6" y="43.3" class="st3" width="43.3" height="595.6"/>
<rect x="633.4" y="43.3" class="st3" width="43.3" height="595.6"/>
<rect x="304.3" y="27.2" class="st4" width="75.6" height="75.6"/>
<g>
	<path class="st5" d="M342.1,165.4c16.6,0,31.8-5.6,44-15c2-1.6,2.1-4.4,0.3-6.2l-12-12c-1-1-2.4-1.5-3.8-1.5c-1.1,0-2.3,0.3-3.2,1
		c-7.2,4.8-15.9,7.6-25.3,7.6c-9.3,0-18-2.8-25.3-7.6c-1-0.6-2.1-1-3.2-1c-1.4,0-2.8,0.5-3.8,1.5l-12,12c-1.8,1.8-1.7,4.6,0.3,6.2
		C310.3,159.8,325.5,165.4,342.1,165.4"/>
	<path class="st6" d="M325.7,103.2c0-9,7.3-16.4,16.4-16.4c9,0,16.4,7.3,16.4,16.4c0,9-7.3,16.4-16.4,16.4
		C333.1,119.5,325.7,112.2,325.7,103.2z"/>
	<path class="st5" d="M342.1,211.3c28.4,0,54.5-10.1,74.8-26.8c3-2.4,3-6.8,0.3-9.5l-8.7-8.7c-1.4-1.4-3.3-2.1-5.3-2.1
		c-1.7,0-3.5,0.6-4.9,1.7c-15.5,12-35,19.2-56.2,19.2c-21.2,0-40.7-7.2-56.2-19.2c-1.4-1.1-3.2-1.7-4.9-1.7c-1.9,0-3.9,0.7-5.3,2.1
		L267,175c-2.7,2.7-2.6,7,0.3,9.5C287.7,201.2,313.7,211.3,342.1,211.3"/>
	<path class="st5" d="M342.1,257.1c40.2,0,77.1-14.5,105.6-38.6c3.9-3.3,4-9.1,0.4-12.7l-5.5-5.5c-1.9-1.9-4.4-2.8-6.9-2.8
		c-2.3,0-4.7,0.8-6.6,2.3c-23.7,19.4-54,31-87,31c-33,0-63.3-11.6-87-31c-1.9-1.6-4.3-2.3-6.6-2.3c-2.5,0-5,0.9-6.9,2.8l-5.5,5.5
		c-3.6,3.6-3.5,9.4,0.4,12.7C265.1,242.6,301.9,257.1,342.1,257.1"/>
</g>
<rect x="17.2" y="627.6" class="st7" width="54.1" height="54.1"/>
<rect x="628" y="627.6" class="st7" width="54.1" height="54.1"/>
</svg>
