<?xml version="1.0" encoding="utf-8"?>
<!-- Generator: Adobe Illustrator 25.0.0, SVG Export Plug-In . SVG Version: 6.00 Build 0)  -->
<svg version="1.1" id="Layer_1" xmlns="http://www.w3.org/2000/svg" xmlns:xlink="http://www.w3.org/1999/xlink" x="0px" y="0px"
	 viewBox="0 0 751 701" style="enable-background:new 0 0 751 701;" xml:space="preserve">
<style type="text/css">
	.st0{fill:#808080;}
	.st1{fill:#FFFFFF;}
	.st2{fill:#FFC61B;}
	.st3{fill:#212121;}
	.st4{fill:#B3B3B3;}
	.st5{fill:#606060;}
	.st6{fill:#6D6E71;}
	.st7{fill:#414042;}
	.st8{fill:#58595B;}
	.st9{fill:#1B75BC;}
	.st10{fill:#2B3990;}
	.st11{fill:#F1F2F2;stroke:#000000;stroke-width:0.5;stroke-miterlimit:10;}
	.st12{fill:#FF2316;stroke:#000000;stroke-width:0.5;stroke-miterlimit:10;}
</style>
<rect x="40.3" y="76.3" class="st0" width="228.5" height="530.3"/>
<rect x="71.2" y="126.4" class="st1" width="163" height="215"/>
<rect x="14.7" y="606.6" class="st2" width="42.8" height="68.2"/>
<rect x="57.6" y="606.6" class="st3" width="38.8" height="68.2"/>
<rect x="96.4" y="606.6" class="st2" width="38.8" height="68.2"/>
<rect x="135.2" y="606.6" class="st3" width="38.8" height="68.2"/>
<rect x="174" y="606.6" class="st2" width="38.8" height="68.2"/>
<rect x="251.6" y="606.6" class="st2" width="30.3" height="68.2"/>
<rect x="212.8" y="606.6" class="st3" width="38.8" height="68.2"/>
<rect x="27.2" y="26.2" class="st4" width="254.7" height="50.1"/>
<rect x="40.3" y="76.3" class="st5" width="228.5" height="9.8"/>
<g>
	<path class="st6" d="M152.6,185.8L152.6,185.8C152.6,185.8,152.6,185.8,152.6,185.8C152.6,185.8,152.6,185.8,152.6,185.8
		L152.6,185.8c-39.5,0-47.8,69.7-42,90.9c5.7,21.1,41.8,9.9,42,9.8c0.2,0.1,36.3,11.4,42-9.8C200.3,255.5,192.1,185.8,152.6,185.8z"
		/>
	<path class="st7" d="M189.5,288.2c-7.8,0-20.4-7.3-20.4-7.3s-0.9,5.3-16.5,5.3c-15.5,0-16.5-5.3-16.5-5.3s-12.6,7.3-20.4,7.3
		c-30.9,0-36.9,53.2-36.9,53.2h73.8h73.8C226.4,341.5,220.4,288.2,189.5,288.2z"/>
	<polygon class="st1" points="169.1,285.4 169.1,266.3 152.6,266.3 136.1,266.3 136.1,285.4 129.4,285.4 152.6,329.7 175.7,285.4 	
		"/>
	<path class="st8" d="M152.6,330.7c-0.4,0-0.7-0.2-0.9-0.6l-23.2-44.3c-0.2-0.3-0.2-0.7,0-1c0.2-0.3,0.5-0.5,0.9-0.5h5.6v-18.1
		c0-0.6,0.5-1,1-1h33c0.6,0,1,0.5,1,1v18.1h5.6c0.4,0,0.7,0.2,0.9,0.5c0.2,0.3,0.2,0.7,0,1l-23.2,44.3
		C153.3,330.5,153,330.7,152.6,330.7z M131.1,286.4l21.5,41.1l21.5-41.1h-5c-0.6,0-1-0.5-1-1v-18.1h-30.9v18.1c0,0.6-0.5,1-1,1
		H131.1z"/>
	<path class="st1" d="M152.6,210.5h-24.9c0,0,0,20.2,0,33.9c0,13.7,13.2,32.3,24.9,32.3c11.9,0,24.9-18.5,24.9-32.3
		c0-13.7,0-33.9,0-33.9H152.6z"/>
	<path class="st6" d="M152.6,277.8c-12.5,0-25.9-19.5-25.9-33.3v-33.9c0-0.6,0.5-1,1-1h49.7c0.6,0,1,0.5,1,1v33.9
		C178.5,258.4,165.4,277.8,152.6,277.8z M128.8,211.6v32.9c0,13.7,13.4,31.2,23.8,31.2c11.5,0,23.8-18.3,23.8-31.2v-32.9H128.8z"/>
	<path class="st6" d="M126.8,224.6c0,0,32.6,3,51.5-14.1h-51.5V224.6z"/>
</g>
<g>
	<rect x="178.5" y="350.5" class="st9" width="104.1" height="248.8"/>
	<rect x="178.5" y="599.3" class="st10" width="104.1" height="9.6"/>
</g>
<g>
	<rect x="232.6" y="371.2" class="st11" width="492.1" height="43.5"/>
	<polygon class="st12" points="273,414.6 232.6,414.6 252.8,371.2 293.1,371.2 	"/>
	<polygon class="st12" points="353,414.6 312.6,414.6 332.8,371.2 373.2,371.2 	"/>
	<polygon class="st12" points="433,414.6 392.6,414.6 412.8,371.2 453.2,371.2 	"/>
	<polygon class="st12" points="513,414.6 472.7,414.6 492.8,371.2 533.2,371.2 	"/>
	<polygon class="st12" points="593.1,414.6 552.7,414.6 572.9,371.2 613.2,371.2 	"/>
	<polygon class="st12" points="673.1,414.6 632.7,414.6 652.9,371.2 693.3,371.2 	"/>
</g>
</svg>
