<?xml version="1.0" encoding="utf-8"?>
<!-- Generator: Adobe Illustrator 25.0.0, SVG Export Plug-In . SVG Version: 6.00 Build 0)  -->
<svg version="1.1" id="Layer_1" xmlns="http://www.w3.org/2000/svg" xmlns:xlink="http://www.w3.org/1999/xlink" x="0px" y="0px"
	 viewBox="0 0 16 16" style="enable-background:new 0 0 16 16;" xml:space="preserve">
<style type="text/css">
	.st0{fill:#808080;}
	.st1{fill:#FFC61B;}
	.st2{fill:#B3B3B3;}
	.st3{fill:#606060;}
	.st4{fill:#6D6E71;}
	.st5{fill:#414042;}
	.st6{fill:#FFFFFF;}
	.st7{fill:#58595B;}
	.st8{fill:#F1F2F2;stroke:#000000;stroke-width:0.25;stroke-miterlimit:10;}
	.st9{fill:#FF2316;stroke:#000000;stroke-width:0.25;stroke-miterlimit:10;}
	.st10{fill:#1B75BC;}
	.st11{fill:#2B3990;}
</style>
<rect x="0.9" y="8.7" class="st0" width="6.5" height="5.2"/>
<rect x="0.4" y="13.8" class="st1" width="7.6" height="1.5"/>
<rect x="0.6" y="0.6" class="st2" width="7" height="1.1"/>
<rect x="0.9" y="1.8" class="st3" width="6.5" height="0.2"/>
<g>
	<path class="st4" d="M4.2,5.1L4.2,5.1L4.2,5.1L4.2,5.1L4.2,5.1c-0.8,0-1,1.6-0.9,2.1c0.1,0.5,0.9,0.2,0.9,0.2c0,0,0.8,0.3,0.9-0.2
		S5,5.1,4.2,5.1z"/>
	<path class="st5" d="M5,7.4c-0.2,0-0.4-0.2-0.4-0.2s0,0.1-0.4,0.1c-0.3,0-0.4-0.1-0.4-0.1S3.6,7.4,3.4,7.4c-0.7,0-0.8,1.2-0.8,1.2
		h1.6h1.6C5.8,8.6,5.6,7.4,5,7.4z"/>
	<polygon class="st6" points="4.5,7.3 4.5,6.9 4.2,6.9 3.8,6.9 3.8,7.3 3.7,7.3 4.2,8.3 4.7,7.3 	"/>
	<path class="st7" d="M4.2,8.4C4.2,8.4,4.2,8.4,4.2,8.4l-0.5-1c0,0,0,0,0,0c0,0,0,0,0,0h0.1V6.9c0,0,0,0,0,0h0.7c0,0,0,0,0,0v0.4
		h0.1c0,0,0,0,0,0c0,0,0,0,0,0L4.2,8.4C4.2,8.4,4.2,8.4,4.2,8.4z M3.7,7.4l0.5,0.9l0.5-0.9H4.5c0,0,0,0,0,0V6.9H3.9v0.4c0,0,0,0,0,0
		H3.7z"/>
	<path class="st6" d="M4.2,5.6H3.7c0,0,0,0.5,0,0.8c0,0.3,0.3,0.7,0.5,0.7c0.3,0,0.5-0.4,0.5-0.7c0-0.3,0-0.8,0-0.8L4.2,5.6L4.2,5.6
		z"/>
	<path class="st4" d="M4.2,7.2c-0.3,0-0.6-0.4-0.6-0.8V5.6c0,0,0,0,0,0h1.1c0,0,0,0,0,0v0.8C4.7,6.7,4.5,7.2,4.2,7.2z M3.7,5.7v0.7
		c0,0.3,0.3,0.7,0.5,0.7c0.2,0,0.5-0.4,0.5-0.7V5.7H3.7z"/>
	<path class="st4" d="M3.6,6c0,0,0.7,0.1,1.1-0.3H3.6V6z"/>
</g>
<rect x="6" y="8.7" class="st8" width="9" height="1"/>
<polygon class="st9" points="9.3,9.6 8.2,9.6 8.7,8.7 9.8,8.7 "/>
<rect x="0.9" y="2" class="st0" width="1.4" height="6.6"/>
<rect x="6" y="2" class="st0" width="1.4" height="6.6"/>
<polygon class="st9" points="10.9,9.6 9.8,9.6 10.4,8.7 11.5,8.7 "/>
<polygon class="st9" points="12.6,9.6 11.5,9.6 12,8.7 13.1,8.7 "/>
<polygon class="st9" points="14.2,9.6 13.1,9.6 13.7,8.7 14.8,8.7 "/>
<polygon class="st9" points="7.6,9.6 6.5,9.6 7.1,8.7 8.2,8.7 "/>
<g>
	<rect x="5.1" y="8" class="st10" width="2.2" height="5.7"/>
	<rect x="5.1" y="13.7" class="st11" width="2.2" height="0.2"/>
</g>
</svg>
